<svg xmlns="http://www.w3.org/2000/svg" width="700.000000pt" height="794.000000pt" version="1.0" viewBox="0 0 700.000000 794.000000"><path d="M562.3 21.8c-3.4 1.5-7.1 3.6-8.1 4.5-1 .9-2.3 1.7-2.9 1.7-1.8 0-10.8 9.3-14.9 15.5-5.7 8.4-7.9 12.9-10.7 21.5-6.5 19.7-7.9 28.4-8 48.1 0 18.7.1 18.4-6.6 15.1-2-1.1-5.9-2.6-8.6-3.5-4.5-1.4-5.7-1.5-10.4-.2-2.9.7-7.1 2.5-9.2 3.9-2.1 1.4-4.3 2.6-4.8 2.6s-2 1.5-3.4 3.2c-1.4 1.8-4 4.9-5.8 6.8-9.7 10.4-14.7 30.5-9.9 39.9 2.2 4.3 8.4 8.1 10.3 6.2 1.4-1.4 6.7-1.4 6.7 0 0 .6-2 3.8-4.4 7.2-4.6 6.5-11.5 19.7-13.4 25.7-.6 1.9-1.6 6.2-2.1 9.4-.6 3.3-1.9 7.1-2.8 8.5-1.9 2.9-2 3-8.6 14.8-6.1 10.8-14.6 27.9-16.2 32.3-.7 1.9-2.3 5.7-3.5 8.5-3.3 7.4-4.5 10.2-7.5 18.5-1.5 4.1-3.1 8.4-3.6 9.5-.9 2.2-4.9 14.8-7.5 23.5-.9 3-2.2 7-3 8.8-.8 1.8-1.4 4.3-1.4 5.6 0 1.2-.3 2.6-.7 3-.5.4-1.3 2.9-1.9 5.4-.7 2.6-2.4 9.2-3.9 14.7-5.1 19.2-9.6 37.9-12 50.5-3 15-3.7 18.6-4.7 23-.5 2.5-1.4 7.1-1.9 10.2-.5 3.2-1.4 8.6-2 12-3.5 20.4-4.6 26.9-5.3 34.3-.4 3.3-1.1 8.2-1.7 11-2 10.1-5.7 60.7-5.8 79.4l-.1 12.4-15.2-.6c-8.4-.4-17.1-1.1-19.3-1.7-2.2-.6-4.9-1.2-6-1.4-1.1-.2-5.6-1.7-10-3.4-13.9-5.2-25.2-10.9-34.3-17.5-2.9-2-5.5-3.7-5.8-3.7-1 0-10-8-19.9-17.5-8.1-7.8-12.5-12.9-21.3-24.5-4.8-6.4-11.2-16.2-13.2-20.1-1.2-2.4-2.8-5.1-3.5-5.9-4-4.6-23.5-46.9-23.5-50.9 0-.9-.7-2.6-1.5-3.7-.8-1-1.5-2.7-1.5-3.7 0-.9-.4-2.5-.9-3.5-2.1-4.2-4.1-9.4-4.1-10.8 0-1.9-2.7-10.8-4.6-15.1-.8-1.7-1.4-3.8-1.4-4.6 0-.8 5.1-6.6 11.4-12.9 9.7-9.7 20-23.1 22.9-29.8.4-.8 1.1-2.2 1.6-3 .5-.8 1.3-2.6 1.8-4 .6-1.4 2-4.7 3.2-7.3 7.7-17.2 11.6-34.7 11.6-52.2v-13l-3.4-5.3c-6.3-9.8-11.6-12.4-21.5-10.4-11 2.2-27.9 17.9-35.1 32.5-1.9 3.8-3.8 7.4-4.3 8-.5.7-1.7 3.4-2.7 6.2-1.8 5.1-4.9 12.5-6.6 16-.5 1.1-2.2 5.6-3.7 10-1.6 4.6-3.4 8.1-4.2 8.3-.8.1-5.5-3.7-10.5-8.6-9.2-9-18.5-14.8-28.5-17.8-6.7-2-17.7-1.5-22 .9-1.9 1.1-4.4 2.5-5.5 3.1-2.7 1.4-8.5 7.3-11.3 11.2-6.3 9.1-8.5 27-5.4 43.4.8 4.1 5 15.2 7.3 19 .5.8 1.5 3 2.4 4.8 2 4.4 11.1 13.2 16.6 15.9 10.5 5.1 12.3 5.5 22.2 5.2 5.2-.2 9.9-.1 10.3.3.8.8-.9 11.9-3.1 20.3-.7 2.7-1.9 8.4-2.5 12.5-1.7 10.4-2.7 15.4-4.4 23.5-2 9.1-2 14.9-.1 16.5 2.8 2.3 4.2.4 4.9-6.7 1.5-15.1 7.3-41.3 11-49.6.8-1.8 2.2-5.7 3.1-8.7 3.2-10.5 4.5-12.4 9.5-13.6 7.1-1.8 8.7-2.4 18.9-7.6 8.4-4.2 9.7-4.6 10.7-3.3.7.9 2.9 6.8 4.9 13.3 2.1 6.4 4.4 13 5 14.7.7 1.6 2.4 6.1 3.8 10 4.6 12.8 13 32.9 15.5 36.9 1.4 2.2 3.1 5.6 3.9 7.5.8 2 2.7 5.4 4.2 7.6 3.1 4.8 4.1 6.3 8.1 13.2 1.7 2.9 3.6 5.5 4.1 5.9.5.3 2.2 2.4 3.6 4.7 7.9 12.7 32 37.9 44.9 46.9 9.1 6.4 24.8 15.5 31.4 18.2 2.5 1 5.9 2.4 7.5 3.1 1.7.7 4.8 1.8 7 2.5s5.8 1.9 8 2.6c4.4 1.4 23.6 3.4 33.2 3.4 3.4 0 6.5.5 6.8 1 .4.6.8 3.8 1.1 7.3.2 3.4.7 7.5 1 9.2.3 1.6 1.2 7 1.9 12 .8 4.9 2.4 13 3.5 18 1.2 4.9 2.7 12.5 3.5 16.8.8 4.3 1.8 8.3 2.1 8.9.4.5 1 3.5 1.4 6.6.5 3.2 1.3 7.3 1.8 9.2.5 1.9 1.9 7.1 3.1 11.5 2.5 8.8 3.5 10.5 6.2 10.5 3 0 3.1-1.7.4-10.2-1.5-4.6-3.2-11-3.9-14.3-.8-3.3-2.3-9.8-3.5-14.5-1.1-4.7-3.2-13.9-4.7-20.5-1.4-6.6-2.7-12.9-3-14-.3-1.1-1.4-7.9-2.4-15-2.3-15.3-2.5-23.4-.7-23.9.6-.2 3.2-.9 5.7-1.6 13.2-3.6 27.5-9.6 30.5-12.9 1-1.2 2.4-2.1 3.2-2.1 2.5 0 17.1-15.1 22.8-23.7 14.2-21.3 20.8-42 20.9-65.8.1-24.2-6.1-40.3-21.1-54.6-6.4-6.1-17.8-13.3-20-12.5-2.1.9-1.5 2.6 1.5 3.9 6.5 2.9 24.2 19.2 24.2 22.4 0 .5 1.1 2.4 2.3 4.3 7.4 11 10 37.3 5.7 57.5-2.4 11.2-5.8 21-9.5 27-1.3 2.2-3.1 5.5-3.9 7.4-4 8.6-22.2 28.4-29.1 31.6-1.6.8-4.8 2.5-7 3.7-7.6 4.4-24.6 10.3-27 9.4-3.1-1.2-.9-52.5 3.5-84.6 2.1-14.6 3-20.6 4-26.5.5-3.3 1.4-8.9 1.9-12.5 2.2-14.7 3.2-20.8 4.6-27 .7-3.6 1.8-9.4 2.5-13 1.2-7.1 1.8-10.1 5.6-26.5 6.4-28.1 8.3-35.7 13.1-52 1.5-5.2 3.7-13.2 5.4-20 .6-2.2 1.4-4.4 2-5 .5-.5.9-1.9.9-3.1 0-1.2 1.1-4.7 2.5-7.8 1.4-3.1 2.5-6.6 2.5-7.6 0-1.1.4-2.8.9-3.8.5-.9 1.6-3.5 2.4-5.7 3.3-8.6 7.1-18 7.7-19 .4-.6 1-2.3 1.4-3.8.4-1.6 4.5-10.6 9.2-20 13.1-26.6 14.6-29.2 17.2-29.5 1.4-.2 2.2.2 2.2 1.1 0 2.6 6.9 8.6 11.1 9.7 4.4 1.2 12.9-.1 15.9-2.4.8-.7 2.7-1.7 4.2-2.4 3.6-1.5 16.7-14 22.7-21.6 2.6-3.4 5.8-8.2 7-10.9 1.3-2.6 2.8-4.7 3.5-4.7.7 0 1.8 1.8 2.5 3.9 4.1 14 21.2 22.7 33.6 17.2 2.6-1.1 5.2-2.1 5.7-2.1 2 0 9-6.6 11.3-10.8 3.2-5.8 3.4-16.1.4-24.2-1.1-3-2.3-6.5-2.6-7.7-.8-3.2-10.3-14.4-15.1-17.7-2.3-1.6-4.2-3.4-4.2-4.1 0-1.4 3-3.6 9.8-7.3 12.9-6.9 27.5-21.6 32.7-32.7 3.7-7.8 5.6-17.7 3.6-18.9-.6-.4-1.1-1.8-1.1-3.1 0-5.7-6.1-11.5-12.1-11.5-3.8 0-3.7-1.4.8-10.3 5-10 5.1-10.2 7.4-19.2 2.6-10.2 3-18.2 1.3-26.9-2.7-13.8-8.9-19.5-22.3-20.3-5.6-.3-7.5 0-12.8 2.5zm24.4 7.7c7.1 8.3 7.2 29.9.2 45.4-1.6 3.5-2.9 6.7-2.9 7.2 0 1.6-8.4 14.5-11.8 18.1-2 2-4.8 4-6.3 4.3-1.5.4-3.3 1.3-4 2.1-.6.8-1.7 1.4-2.4 1.4s-1.8.7-2.5 1.5-2 1.5-3 1.5c-2.3 0-5.2 3.4-4.4 5.3 1 2.7 5.1 4.7 9.5 4.7 3.9 0 4.7-.5 10.8-7 6.7-7.1 14.3-12 18.6-12 1.7 0 2.9.9 4.1 3.2 3.8 7.2.9 20.8-6.3 29.7-4.3 5.3-13 14.1-15.5 15.6-.9.5-4.3 2.8-7.5 5s-8.4 5.2-11.7 6.7c-5.1 2.5-6.8 2.8-13.3 2.5-4.1-.2-7.9-.9-8.5-1.5-.6-.6-1.3-4.6-1.6-8.9-.2-4.3-1.1-9-1.8-10.5-3.4-6.7-2.7-46.9 1.1-61.9 2.6-10.2 4.7-17.4 5.4-18.4.4-.6 1.6-3 2.5-5.5 4.8-12.2 15.1-23.4 27.4-29.7 6.1-3.1 7.3-3.3 13.7-2.9 6.6.3 7.1.6 10.2 4.1zm-79.2 102.8c4.3 2.2 9.8 7.2 11 10.1 2.5 6 2.9 16.3.9 22.5-2.3 7.1-2.7 7.6-8.3 10.5-2.5 1.3-6.9 3.6-9.7 5-5.1 2.7-13.1 9.8-21.6 19.3-2.6 2.8-5.2 5.4-5.8 5.8-1.7 1.1.8-4.5 3.5-7.7 1.4-1.6 2.5-3.4 2.5-3.9s3.2-4.5 7.1-8.9c6.5-7.5 12.7-12 16.3-12 .9 0 2-.8 2.5-1.8 1.3-2.4-1.2-6.2-4-6.2-2.1 0-7.4 2.4-9.9 4.5-.8.7-4 2.5-7 4s-7.2 3.5-9.3 4.6c-8.1 4-11.7 1.4-11.7-8.3 0-3.2.4-6.6.9-7.6.6-.9 1.2-2.8 1.5-4.2.7-3.5 7.7-13.8 12.3-18.1 4.7-4.5 11.2-8.6 14.4-9.1 3.4-.6 12 .3 14.4 1.5zm43.3 42.3c6.5 3.6 8.6 5.4 13.8 11.8 5.5 6.6 7.4 12.4 7.4 22.3 0 8.5-2.3 14.2-6.8 17-1.5.9-3.7 2.6-5 3.7-1.8 1.6-3.7 2-9 2-9.4.1-14.1-3-18.2-12-3.9-8.5-4.9-13.2-5-22.9 0-8.5.4-9.7 3.3-10.8 1.5-.6 1.8-1.6 1.5-6.4l-.3-5.8 4.5-.6c8-1.1 9-.9 13.8 1.7zM513 188.5c0 5.8.3 6.8 3.1 10 3.1 3.5 3.1 3.6 1.9 8.1-3.2 11.4-12 23.8-24.3 34.3-9.1 7.7-13.7 10.1-19.1 10.1-5.4 0-8.3-1.9-10.6-6.8-2.9-6.1-2.2-9.1 4.7-19.3 11.9-17.8 23.9-31.4 33-37.6 10.7-7.1 11.3-7.1 11.3 1.2zM216 296.8c7.4 7.4 8.9 20.9 4.5 41.6-1.4 6.6-2.9 12.5-3.4 13-.4.6-1.4 3.3-2 6-2.1 8.7-11.1 27-18.7 38-6 8.7-19.8 22.6-22.6 22.6-.9 0-2-1-2.3-2.3-1.6-5.2-13.1-27.6-16.8-32.5l-4-5.3 1.6-3.5c1-1.9 1.7-4 1.7-4.7 0-.8 1.1-3.7 2.5-6.5 1.4-2.9 2.5-5.8 2.5-6.5 0-.7.4-1.7.9-2.3.5-.5 1.4-2.7 2.1-4.9 2.5-8.2 8.9-21.4 14.2-29.6 5.5-8.6 18-20.8 24.8-24.1 7.7-3.8 10.4-3.6 15 1zm-111.1 51.3c2 .6 4.9 1.7 6.4 2.5 1.6.8 3.3 1.4 3.9 1.4.6 0 2.6 1.1 4.4 2.5 1.8 1.4 3.8 2.5 4.4 2.5.6 0 5.4 4.3 10.6 9.5 10.2 10.3 11 12.2 8 18.8-.8 1.8-2.1 5.4-3 8.2-.8 2.7-2.6 8.4-3.9 12.5-1.3 4.1-3 9.5-3.7 12-.6 2.5-1.8 6.1-2.6 8-.7 1.9-1.6 5.1-1.9 7-.4 1.9-1.3 4.5-2.1 5.7-1.4 2.2-2.1 2.3-13.9 2.3-7.2 0-12.6-.4-13-1-.3-.6-1.4-1-2.3-1-3 0-11.8-6.7-15.5-11.7-1.9-2.7-4.3-6.9-5.2-9.3-.9-2.5-2-5.2-2.5-6.1-2.3-4.4-5-17.6-5-24.4 0-7.2 2.7-18.5 5.1-20.9.5-.6.9-1.8.9-2.7 0-2.3 9.4-11.5 13.4-13.3 8.2-3.7 11.9-4.2 17.5-2.5zm53.3 51.9c8.4 16.1 10.5 23.5 7.1 24.7-1 .3-3 1.5-4.5 2.5-1.4 1-3.1 1.8-3.8 1.8-.6 0-2.8 1.1-4.8 2.5s-4.3 2.5-5.2 2.5c-.8 0-2.8.7-4.4 1.5-5.4 2.8-5.3 3.4-2.7-19.7.9-8.1 6-25.4 8.4-28.6 1.6-2 3.7.8 9.9 12.8z"/><path d="M321.7 308.7c-1.7 1.6-.4 4.5 3.1 6.7 9.4 5.9 21.8 10.6 24.3 9.1 2.5-1.6 1.3-2.5-11.3-7.8-2-.9-5.5-3.2-7.6-5.2-3.7-3.3-7-4.4-8.5-2.8zM318.4 357.2c-4 4.1-6.1 8.3-8.9 17.5-1.7 5.5-3.4 8.5-7.6 13.2-8.9 10.1-12.4 6.8-7.5-6.9 3.1-8.6 3.2-11.1.6-13.5-1.8-1.7-2.1-1.7-4.5-.1-1.4.9-3 2.9-3.6 4.3-.5 1.4-1.9 3.9-3.1 5.5-1.8 2.6-2 3.8-1.4 9.1l.6 6.2-7.9 7.5c-10.2 9.7-16.2 13-23.6 13-5.3 0-5.8.2-10.1 4.6-2.5 2.6-5.2 6.1-6 7.8-.8 1.7-2.1 4.2-2.9 5.6-1.9 3.2-1.9 11.3 0 14.9 1.4 2.9 6.8 6.1 10.1 6.1 3.2 0 8.5-5.1 11.1-10.8 2-4.3 2.5-7.2 2.6-13v-7.4l3.6-1.6c5-2.3 16.7-11.1 22.1-16.6 2.4-2.5 4.8-4.6 5.2-4.6 1.9 0 .5 3.4-3.2 8.2-4.7 5.8-4.9 8.7-.7 10.1 4.7 1.5 9.7-1.8 11.6-7.9 1.9-5.6 14.6-21.4 17.3-21.4.9 0 2.8.4 4.1.9 4.4 1.7 9.3-.5 16.1-7.2 8-8 15.8-18.3 15.4-20.4-.5-2.9-2.7-2.6-5.6.8-13.2 15.7-21.3 22.6-24.8 21.2-2.1-.8-1.7-2.1 2.1-6.7 1.9-2.4 3.5-4.8 3.5-5.3s.7-2.4 1.6-4.1c.8-1.7 1.6-5.1 1.7-7.4.2-3.9 0-4.3-2.3-4.6-1.8-.2-3.4.7-5.6 3zm-68 66c1.2 4.8.5 9.2-2.6 15-3.7 6.9-6.2 8.8-8.6 6.4-3.4-3.4-.5-14.6 5.5-21 2.9-3.2 4.9-3.3 5.7-.4zM528.1 507.5c-12.4 12-14.4 12.8-16.2 6.2-.7-2.3-1.3-6-1.3-8.2-.1-3.2-.5-4-2-4-1 0-2.4.9-3 1.9-.6 1-3.4 5.3-6.1 9.5-5.7 8.7-8.1 9.6-9.9 4.1-.9-3-1.6-3.5-4.1-3.5-3 0-3 .1-3.1 5.5-.3 8.5-2.4 16.3-7 25.3-3.6 7.2.4 9.5 4.7 2.7.9-1.4 1.9-3.9 2.2-5.5 3.1-16.1 4-17.7 7.8-14.5l2.4 2.1 3.5-3.9c1.9-2.2 4.7-5.8 6.2-8.1 1.5-2.2 3.1-4.1 3.5-4.1.5 0 1.9 2.6 3.2 5.6l2.5 5.6-6.1 5.7c-13.6 12.7-22.5 20.6-24.1 21.5-4 2.1-11.2 8.1-11.2 9.3 0 3 3.2 2.3 8-1.7 5.5-4.6 7.3-4.4 8.5.9.7 3.2 7.5 10.1 12.2 12.5 7.6 3.8 13.8.3 21.5-12.1 6-9.6 8.1-16.7 7.6-25.4-.3-6.2-.8-7.4-5.3-13.5-.7-1 .8-3 6-8 3.9-3.6 8.8-8.1 10.9-9.9 2.7-2.2 3.7-3.8 3.3-4.9-1.2-3.1-3.8-1.5-14.6 8.9zm-6.8 20.3c2.5 2.2 2.3 13-.4 20.7-3.6 10.3-12 20.6-16.7 20.4-6.5-.2-14.2-8-14.5-14.7-.1-4.7-.1-4.8 17.6-20.6 9.8-8.7 10.3-8.9 14-5.8zM533.3 593.7c-.3 1-3.5 4.8-7 8.6-3.5 3.7-6.3 7.6-6.3 8.6s-.7 2.4-1.5 3.1c-1.1.9-2.1.5-5-2.5-2.8-2.7-4.2-3.4-5.8-3-2.5.8-5.7 4.1-5.7 6 0 .7-.7 2.6-1.5 4.1-.8 1.6-1.5 3.7-1.5 4.6 0 .9-.4 2-1 2.3-.5.3-1 2.4-1 4.6 0 3.7-.2 3.9-2 2.9-1.1-.6-2-1.5-2-2 0-.6-1.3-2.9-3-5.2-1.6-2.2-3-4.8-3-5.6 0-.9 2.3-4.2 5.2-7.5 4.1-4.7 4.9-6.3 4.1-7.6-1.9-3.1-4-2.2-8.4 3.5-4.3 5.6-4.3 5.6-5.9 3.5-3.8-5.5-5.7-7.4-6.8-6.7-1.9 1.2-1.4 4.9 1.3 8.8 2.5 3.7 3.3 9.2 1.5 10.3-.5.3-1.4 3.3-2.1 6.6-.6 3.3-1.5 6.2-2 6.5-2.5 1.5-15.9-11.1-15.9-15.1 0-.9 1.8-3.9 4.1-6.6 2.2-2.7 3.9-5.7 3.7-6.6-.6-3.2-4.1-2-7.3 2.4-3.6 5-5.4 5.3-8.4 1.2-1.5-2-2.9-2.9-4.4-2.7-3.4.5-3.1 3.3.9 7.7l3.6 4.1-3.2 6.6c-4.7 9.4-5.9 17.4-2.6 17.4 1.4 0 3.1-3.1 4-7.2.8-3.6 4.5-9.8 5.9-9.8.6 0 4.1 2.9 7.8 6.5 4.6 4.5 7.5 6.5 9.2 6.5 1.8 0 3.1 1 4.6 3.6 1.2 1.9 2.6 3.2 3.1 2.9.6-.3 1-3.6 1-7.3 0-7.9 1.5-14.2 3.5-14.2.7 0 3.4 2.8 5.9 6.2 8.5 11.7 8.8 11.9 16.2 12.1l6.6.2 4.1-4.6c2.3-2.6 4.9-5.7 5.7-6.9 1.4-2 1.8-2.1 6.1-.9 4.1 1.1 5.1 1 8.5-.5 5.4-2.5 11.1-8.2 14.1-14 4.7-9.2 1.3-20.7-7.1-24.1-6.2-2.6-9.5-2.8-10.3-.8zm11.8 9.2c3.5 3.5 3.7 6.5.8 12.7-2.3 4.7-9.3 11-13.7 12.1-4.6 1.1-9.2-3.4-9.2-9.2 0-1.3.5-2.7 1-3 .6-.3 1-1.4 1-2.4 0-2.2 6.4-8.3 11.5-10.9 5.2-2.7 5.1-2.7 8.6.7zm-33 15.1c5.2 2.9 6.4 12 2.2 17.2-4.6 5.6-6.5 6.1-10.1 2.8-2.8-2.6-2.9-7.9-.1-13.9 3.2-7.3 4.3-8 8-6.1z"/></svg>