<svg xmlns="http://www.w3.org/2000/svg" width="2557.000000pt" height="905.000000pt" version="1.0" viewBox="0 0 2557.000000 905.000000"><path d="M0 282.5V565h154V144h129.3c84.3 0 131.5.4 135.7 1.1 13.5 2.1 24.9 10 30.6 21.1 6.1 11.8 5.7 4.6 6.4 145.8.6 118.8.8 130.1 2.4 137 5 21.5 14.6 42.8 26.1 58.1 7.9 10.5 23.7 25.8 33.5 32.4 22.1 14.8 50.5 24.2 74 24.5 4.1.1 57.6.1 118.8.1L822 564V385h265v180h154V370.2c0-163.7-.3-196.9-1.5-208.5-5.1-47.8-21-85.1-47.7-111.7-11.5-11.4-23.4-19.8-39.3-27.6-14.5-7.1-26.2-11.1-43.4-15-25-5.6-22.8-5.5-150.1-6.5C893.8.4 836 .2 830.5.6c-36.2 2-70.6 18.2-100.8 47.3-26.4 25.4-46.2 59.4-55.2 94.8-6.2 24.6-5.8 13.9-6.4 166.8l-.6 140-11.5-.4c-12.7-.4-19.3-2.1-26.3-7-8.2-5.6-14.3-14.1-17.8-24.6-1.1-3.2-1.5-29.8-2-132.5-.4-88.8-.9-131.1-1.7-137-2.3-16.2-6.3-34.5-10.2-46.4-19.4-57.8-58.7-89.3-124-99.4C464.6.8 439.3.6 231.8.3L0-.1v282.6zm1070.9-139.4c6.6 3.3 9.7 6.7 13.3 14.5 2.3 4.8 2.3 5.6 2.6 47.1l.3 42.3H822v-39.8c0-33.7.2-40.7 1.6-45.2 1.9-6.4 6.2-13 10.8-16.5 7.3-5.6 2-5.4 120.7-5.4l109.6-.1 6.2 3.1zM1316.7.6c-.4.4-.7 127.6-.7 282.6V565h154V144l133.3.2 133.2.3 6 2.3c13 4.9 22.6 14.8 26 26.6 3.5 12.5 3.7 20.1 3.3 141.1-.3 130.7-.5 125.4 5.7 147 16.6 57.1 67.7 98.5 126.5 102.3 5.8.4 60.6.6 121.8.4l111.2-.2V385h265v180h155.1l-.4-199.8c-.3-181.3-.4-200.7-2-210.7-7.2-47-21.4-78.5-47.1-104.1-21.6-21.5-47.8-35.2-82.2-42.9-25.3-5.7-22.8-5.6-151.4-6.6-65.7-.5-123.5-.7-128.5-.3-13.4.9-24 2.9-35.6 7-25.8 8.9-47.9 23.4-69 45-31.1 32-48.8 69-56 116.9-.9 5.8-1.3 45-1.6 144.2l-.4 136.2-8.2-.5c-4.5-.2-10.4-.7-13-.9-13.3-1.2-27.3-13.2-33.1-28.3-2.1-5.7-2.1-5.9-2.7-132.7-.4-90.2-.9-129.9-1.8-137-10.7-88.5-51.6-134.4-131.6-147.8l-13-2.1-231.1-.3c-127-.2-231.3-.1-231.7.3zM2386 142.4c5.9 3.1 11.9 9.6 14 15.4 1.9 5 2 7.8 2 47.2v42h-265.1l.3-40.8c.3-39.5.4-40.9 2.6-46.3 2.9-7.4 8.9-14.1 15.4-17.3l5.3-2.6 111 .2c106 .3 111.2.4 114.5 2.2z"/><path d="m228.2 386.2.3 178.3 73.8.3 73.7.2V208H228l.2 178.2zM1544 386.5V565h148V208h-148v178.5zM1977.5 678.5c-35.8 5.7-60.2 23.3-68.6 49.5-4.7 14.4-3.4 35.1 2.8 47.5 3.5 6.8 13.3 16.7 21.9 22.1 8.6 5.4 27.3 11.7 49.9 16.8 38.2 8.8 46.5 13 46.5 23.8 0 13-10.3 18.3-35.5 18.1-22.1 0-41.3-4.9-62.1-15.7l-10.2-5.3-10 22.6c-7.7 17.3-9.8 22.9-8.9 23.8 2.8 2.8 17.1 9.5 28.2 13.2 33.4 11.1 72 13.2 101.5 5.5 41.3-10.8 64.2-41.9 57.6-78.3-2.2-12.3-6.1-19.4-15.5-28.4-12.3-11.8-27.4-18.2-58.7-25.2-36.8-8.1-45.7-11.8-48.4-20.1-1.3-4 0-9.8 3.1-13.8 5.2-6.6 20.5-10.4 37.3-9.3 15.8 1.1 31.7 5.3 47 12.6 4.4 2.2 8.2 3.9 8.2 3.8.6-.8 18.4-44.5 18.4-45.3 0-1.4-4.1-3.6-14.2-7.8-10.5-4.3-25-8.1-38.9-10.1-12.6-1.8-40.3-1.8-51.4 0zM586.6 684.2c-.7 1.8-21.7 49.4-46.6 105.8-24.9 56.4-46.1 104.4-47.1 106.7l-1.8 4.3h63.5l31.4-78.6c17.3-43.2 31.7-78.7 32.1-78.9.4-.3 10.1 23.1 27.6 67.2.4 1-4.1 1.3-19.2 1.5l-19.7.3-8.4 21c-4.6 11.5-8.7 21.8-9 22.7-.5 1.7 1.7 1.8 37.3 1.8h37.9l8.5 21.2 8.5 21.3 32.3.3c30.5.2 32.3.1 31.8-1.5-.3-1-9.6-22.3-20.7-47.3-11.1-25-31.1-70.3-44.5-100.5-13.4-30.3-25.9-58.5-27.8-62.8l-3.6-7.7H588l-1.4 3.2zM739 681.6c0 .4 7.9 25 17.6 54.8 9.6 29.7 25.4 78.4 35 108.1 9.6 29.7 17.7 54.6 17.9 55.3.4 1 7.6 1.2 33.7 1l33.2-.3 21.4-65c11.7-35.8 21.6-65.7 21.9-66.5.7-1.9-1.5-8.4 21.3 64.5 10.5 33.5 19.6 62.5 20.1 64.2l1.1 3.3h66.4l16.3-50.3c8.9-27.6 24.4-75.2 34.3-105.7 9.9-30.5 18.6-57.4 19.3-59.8l1.3-4.2h-59.3l-23 70.6c-12.6 38.8-23.2 69.9-23.4 69.2-.3-.7-10.2-32.4-22.1-70.3l-21.5-69-28.7-.3-28.6-.2-22.7 68.7c-12.5 37.9-23 69.2-23.4 69.6-.4.4-1.3-1.2-2-3.5-.7-2.4-10.2-32.9-21.2-67.8s-20.2-64.3-20.5-65.3c-.5-1.6-2.9-1.7-32.5-1.7-17.5 0-31.9.3-31.9.6zM1140.5 789.9c-26.4 59.9-48.1 109.4-48.3 110-.3.8 8.7 1.1 31.4.9l31.8-.3 31.5-78.8c17.3-43.3 31.8-78.4 32.2-78 .4.5 6.8 16 14.2 34.5l13.5 33.8h-39.3l-9.1 22.8-9.1 22.7 38.1.5 38 .5 8.5 21.2 8.5 21.3h32.4c25.5 0 32.3-.3 31.9-1.3-.3-.6-9.6-21.7-20.7-46.7-11.1-25-30.4-68.7-43-97-12.5-28.3-25.1-56.8-28-63.3l-5.3-11.7h-61.2l-48 108.9zM1383 790.9V901h62V730h20.3c22.3 0 31.1 1.3 38.1 5.4 10 5.9 14.1 13.8 14.1 27.1 0 7.8-.4 9.7-2.8 14.7-3.3 6.8-8.1 11-15.7 14-4.6 1.8-8.1 2.2-21.7 2.6l-16.3.4v11.2l.1 11.1 28 41c15.4 22.5 28.5 41.5 29.2 42.3 1 .9 8.5 1.2 34 1l32.8-.3-23.6-34.4c-13-18.9-23.5-34.4-23.3-34.6.2-.1 2.8-1.6 5.8-3.3 29.5-16.7 43.1-52 33.9-88-3.2-12.5-9.1-22.5-19.4-32.7-12.7-12.7-25.6-19.2-48-24.2-5.8-1.3-17.2-1.7-67.2-2l-60.3-.4v110zM1636 791v110.2l61.3-.5c55.7-.4 62.1-.6 71.7-2.4 47.2-9 79.5-36.9 90-77.9 5.8-22.6 4.2-51.2-4.1-72.2-11-27.7-34.3-49-65.1-59.3-21.2-7.1-21.6-7.1-91-7.6l-62.8-.4V791zm118.5-58.5c10.2 2.1 21.9 8.2 28.8 15.1 11.4 11.3 16.1 23.9 16.1 42.9 0 8.2-.5 14-1.7 18.3-5.2 19.2-17.9 32.6-37.1 38.9-7.8 2.6-9.1 2.7-35.3 3.1l-27.3.4V731h24.8c17.8 0 26.7.4 31.7 1.5z"/></svg>