<svg id="visual" viewBox="0 0 900 600" width="900" height="600" xmlns="http://www.w3.org/2000/svg" xmlns:xlink="http://www.w3.org/1999/xlink" version="1.1"><g transform="translate(448.53429102656145 311.9904781082869)"><path d="M159.5 -185.3C205.5 -151.5 240.6 -100.1 247.9 -45.7C255.1 8.8 234.5 66.1 201.4 109.6C168.4 153.1 122.8 182.7 74.7 196.5C26.6 210.2 -24.2 208 -64.1 188.2C-104.1 168.4 -133.2 131.1 -170 88.1C-206.7 45.1 -251.1 -3.5 -246 -45.3C-240.9 -87.1 -186.3 -122.1 -137.1 -155.2C-87.8 -188.4 -43.9 -219.7 6.4 -227.3C56.8 -235 113.6 -219 159.5 -185.3" fill="#715DF2"></path></g></svg>